<?xml version="1.0" standalone="no"?>
<!DOCTYPE svg PUBLIC "-//W3C//DTD SVG 20010904//EN"
 "http://www.w3.org/TR/2001/REC-SVG-20010904/DTD/svg10.dtd">
<svg version="1.0" xmlns="http://www.w3.org/2000/svg"
 width="200.000000pt" height="200.000000pt" viewBox="0 0 200.000000 200.000000"
 preserveAspectRatio="xMidYMid meet">
<metadata>
Created by potrace 1.14, written by Peter Selinger 2001-2017
</metadata>
<g transform="translate(0.000000,200.000000) scale(0.100000,-0.100000)"
fill="#000000" stroke="none">
<path d="M956 1324 c-4 -10 -12 -14 -23 -10 -23 9 -65 -32 -57 -56 3 -11 -1
-20 -10 -24 -22 -9 -22 -80 0 -88 10 -4 14 -12 10 -23 -9 -23 32 -65 56 -57
11 3 20 -1 24 -10 8 -21 54 -21 54 -1 0 18 31 20 48 3 17 -17 47 14 38 37 -5
13 -14 16 -40 11 -65 -12 -126 29 -126 84 0 41 24 70 58 70 12 0 22 5 22 10 0
6 19 9 43 8 36 -3 42 0 42 17 0 17 -6 20 -42 17 -33 -2 -43 1 -43 13 0 20 -46
20 -54 -1z"/>
<path d="M1098 1272 c-9 -14 -29 -20 -70 -24 -66 -5 -88 -20 -88 -59 0 -38 33
-59 93 -59 38 0 53 -5 66 -22 21 -25 51 -19 51 12 0 11 -3 21 -7 21 -5 1 -17
3 -28 6 -11 2 -49 7 -85 11 -61 7 -65 9 -65 32 0 23 4 25 65 32 36 4 76 8 90
10 19 2 25 9 25 28 0 31 -28 38 -47 12z"/>
<path d="M1105 1210 c-3 -5 -33 -10 -66 -10 -33 0 -59 -4 -59 -10 0 -6 26 -10
58 -10 32 0 63 -5 69 -11 7 -7 19 -9 27 -6 21 8 21 43 0 51 -21 8 -22 8 -29
-4z"/>
<path d="M432 908 c4 -85 25 -107 30 -31 l3 48 34 -48 c36 -50 54 -55 59 -18
3 22 4 22 23 -4 24 -30 50 -32 73 -6 17 19 18 19 37 0 20 -20 45 -24 68 -10
21 13 5 29 -24 23 -15 -2 -25 0 -25 7 0 6 14 11 31 11 25 0 30 3 27 21 -2 12
-13 28 -25 36 -20 14 -24 13 -46 -9 -23 -24 -25 -24 -36 -6 -17 28 -72 21 -88
-11 -11 -23 -12 -22 -15 20 -4 58 -31 62 -36 5 l-3 -38 -31 41 c-46 63 -59 55
-56 -31z m206 -20 c-5 -34 -38 -37 -38 -4 0 20 5 26 21 26 15 0 20 -5 17 -22z"/>
<path d="M820 971 c0 -20 60 -141 70 -141 9 0 48 78 65 129 13 42 -23 21 -42
-24 -10 -25 -21 -45 -24 -45 -4 0 -14 20 -23 45 -10 25 -24 45 -32 45 -8 0
-14 -4 -14 -9z"/>
<path d="M962 923 c-17 -17 -21 -29 -16 -46 11 -37 25 -47 63 -44 36 2 36 2
39 53 3 51 3 52 -29 56 -25 4 -38 0 -57 -19z m56 -35 c-5 -34 -38 -37 -38 -4
0 20 5 26 21 26 15 0 20 -5 17 -22z"/>
<path d="M1173 924 c-27 -27 -29 -42 -7 -73 12 -16 23 -22 40 -18 20 3 24 0
24 -20 0 -15 5 -23 13 -21 8 3 13 30 15 75 l3 71 -32 4 c-25 4 -38 0 -56 -18z
m54 -48 c-10 -25 -37 -19 -37 7 0 13 3 27 7 31 11 11 36 -21 30 -38z"/>
<path d="M1395 926 c-24 -24 -25 -24 -25 -5 0 31 -35 20 -37 -11 0 -14 -1 -31
-2 -37 -1 -7 -8 -13 -16 -13 -11 0 -15 11 -15 40 0 29 -4 40 -15 40 -11 0 -15
-11 -15 -38 0 -53 17 -73 60 -69 27 2 36 8 41 27 4 15 7 18 8 8 2 -37 91 -50
91 -13 0 11 -8 13 -30 9 -19 -4 -30 -2 -30 5 0 6 13 11 28 11 16 0 32 3 35 6
9 10 -11 42 -33 54 -16 9 -25 6 -45 -14z"/>
<path d="M1060 930 c0 -6 9 -14 21 -18 l20 -8 -20 -26 c-31 -39 -26 -48 24
-48 33 0 45 4 45 15 0 10 -10 15 -27 15 l-27 0 27 28 c39 40 35 52 -18 52 -25
0 -45 -5 -45 -10z"/>
<path d="M1480 929 c0 -6 9 -13 20 -16 20 -5 20 -5 0 -33 -30 -42 -25 -50 25
-50 33 0 45 4 45 15 0 9 -10 15 -26 15 l-26 0 26 31 c14 17 26 35 26 40 0 5
-20 9 -45 9 -26 0 -45 -5 -45 -11z"/>
<path d="M520 751 c0 -27 19 -36 37 -18 18 18 9 37 -18 37 -12 0 -19 -7 -19
-19z m27 -13 c-3 -8 -6 -5 -6 6 -1 11 2 17 5 13 3 -3 4 -12 1 -19z"/>
<path d="M732 745 c0 -16 2 -22 5 -12 2 9 2 23 0 30 -3 6 -5 -1 -5 -18z"/>
<path d="M1074 755 c-3 -8 -3 -19 1 -25 9 -15 35 -12 35 5 0 8 -5 15 -11 15
-5 0 -7 -5 -3 -12 4 -7 3 -8 -4 -4 -17 10 -15 24 6 29 16 4 16 5 -1 6 -10 0
-20 -6 -23 -14z"/>
<path d="M1340 745 c0 -20 4 -26 18 -23 9 2 17 12 17 23 0 11 -8 21 -17 23
-14 3 -18 -3 -18 -23z m25 6 c3 -5 1 -12 -5 -16 -5 -3 -10 1 -10 9 0 18 6 21
15 7z"/>
<path d="M584 749 c-3 -6 -1 -16 5 -22 9 -9 14 -8 21 3 9 15 4 30 -10 30 -5 0
-12 -5 -16 -11z"/>
<path d="M637 742 c1 -8 3 -16 3 -18 0 -3 5 -2 10 1 6 3 10 14 10 23 0 13 -2
14 -9 3 -5 -7 -11 -9 -13 -5 -3 5 -3 3 -1 -4z"/>
<path d="M680 740 c0 -11 7 -20 15 -20 8 0 15 9 15 20 0 11 -7 20 -15 20 -8 0
-15 -9 -15 -20z"/>
<path d="M754 749 c-10 -17 13 -36 27 -22 12 12 4 33 -11 33 -5 0 -12 -5 -16
-11z"/>
<path d="M807 753 c-10 -9 -9 -43 1 -43 12 0 32 23 32 37 0 14 -22 18 -33 6z"/>
<path d="M860 740 c0 -13 5 -20 13 -17 6 2 12 10 12 17 0 7 -6 15 -12 18 -8 2
-13 -5 -13 -18z"/>
<path d="M907 753 c-10 -9 -9 -23 2 -23 5 0 11 7 15 15 5 15 -5 20 -17 8z"/>
<path d="M1130 740 c0 -11 7 -20 15 -20 8 0 15 9 15 20 0 11 -7 20 -15 20 -8
0 -15 -9 -15 -20z"/>
<path d="M1181 738 c0 -22 1 -22 9 -3 l9 20 1 -20 1 -20 8 20 8 20 5 -20 c5
-18 6 -18 7 3 1 17 -4 22 -24 22 -19 0 -25 -5 -24 -22z"/>
<path d="M1250 739 c0 -24 23 -21 28 4 2 10 -3 17 -12 17 -10 0 -16 -9 -16
-21z"/>
<path d="M1395 750 c-7 -12 2 -30 16 -30 6 0 7 5 4 10 -3 6 -1 10 5 10 6 0 8
5 5 10 -3 6 -10 10 -15 10 -5 0 -12 -4 -15 -10z"/>
<path d="M1445 743 c3 -8 5 -17 5 -19 0 -3 5 -2 10 1 16 10 12 32 -5 32 -10 0
-14 -6 -10 -14z"/>
<path d="M990 740 c0 -5 5 -10 10 -10 6 0 10 5 10 10 0 6 -4 10 -10 10 -5 0
-10 -4 -10 -10z"/>
</g>
</svg>
